<?xml version="1.0" encoding="UTF-8"?>
<!DOCTYPE svg PUBLIC "-//W3C//DTD SVG 1.1//EN" "http://www.w3.org/Graphics/SVG/1.1/DTD/svg11.dtd">
<!-- Creator: CorelDRAW -->
<svg xmlns="http://www.w3.org/2000/svg" xml:space="preserve" width="512px" height="512px" version="1.1" style="shape-rendering:geometricPrecision; text-rendering:geometricPrecision; image-rendering:optimizeQuality; fill-rule:evenodd; clip-rule:evenodd"
viewBox="0 0 512 512"
 xmlns:xlink="http://www.w3.org/1999/xlink"
 xmlns:xodm="http://www.corel.com/coreldraw/odm/2003">
 <defs>
  <style type="text/css">
   <![CDATA[
    .fil0 {fill:#333333}
    .fil2 {fill:#D9F2F2}
    .fil1 {fill:#F3A766}
   ]]>
  </style>
 </defs>
 <g id="Layer_x0020_1">
  <metadata id="CorelCorpID_0Corel-Layer"/>
  <path class="fil0" d="M378.94 242.74c-18.35,0 -18.35,-27.99 0,-27.99 18.35,0 18.35,27.99 0,27.99zm-264.8 269.14c-30.57,0 -59.24,-11.83 -80.71,-33.31 -44.51,-44.5 -44.51,-116.92 0,-161.43l283.71 -283.71c44.24,-44.24 117.2,-44.24 161.43,0 44.51,44.5 44.51,116.92 0,161.43l-283.71 283.71c-21.48,21.48 -50.14,33.31 -80.72,33.31zm283.72 -497.76c-26.84,0 -51.99,10.37 -70.82,29.2l-41.78 41.78 141.64 141.64 41.78 -41.78c62.96,-62.96 18.05,-170.84 -70.82,-170.84zm-122.5 80.88l-180.36 180.36 141.64 141.64 180.37 -180.36 -141.65 -141.64zm-190.26 190.26l-41.78 41.78c-62.96,62.96 -18.05,170.84 70.82,170.84 26.84,0 51.99,-10.37 70.82,-29.2l41.78 -41.78 -141.64 -141.64zm47.97 11.99c-18.36,0 -18.36,-27.99 -0.01,-27.99 18.36,0 18.36,27.99 0.01,27.99zm31.89 31.89c-18.35,0 -18.35,-27.99 0,-27.99 18.35,0 18.35,27.99 0,27.99zm31.89 31.89c-18.36,0 -18.36,-27.98 0,-27.98 18.36,0 18.36,27.98 0,27.98zm31.9 31.9c-18.35,0 -18.35,-27.99 0,-27.99 18.35,0 18.34,27.99 0,27.99zm-58.14 -133.23c-18.36,0 -18.36,-27.99 0,-27.99 18.36,0 18.36,27.99 0,27.99zm31.9 31.89c-18.35,0 -18.35,-27.98 0,-27.98 18.34,0 18.35,27.98 0,27.98zm31.89 31.9c-18.36,0 -18.36,-27.99 0,-27.99 18.36,0 18.36,27.99 0,27.99zm31.89 31.89c-18.34,0 -18.35,-27.99 0,-27.99 18.35,0 18.35,27.99 0,27.99zm-58.13 -133.23c-18.36,0 -18.36,-27.99 0,-27.99 18.36,0 18.36,27.99 0,27.99zm31.89 31.9c-18.34,0 -18.34,-27.99 0,-27.99 18.35,0 18.35,27.99 0,27.99zm31.9 31.89c-18.35,0 -18.35,-27.99 0,-27.99 18.36,0 18.36,27.99 0,27.99zm31.89 31.89c-18.34,0 -18.35,-27.98 0,-27.98 18.36,0 18.36,27.98 0,27.98zm-58.13 -133.23c-18.36,0 -18.36,-27.98 0,-27.98 18.35,0 18.36,27.98 0,27.98zm31.89 31.9c-18.35,0 -18.35,-27.99 0,-27.99 18.35,0 18.35,27.99 0,27.99zm31.89 31.89c-18.35,0 -18.35,-27.98 0,-27.98 18.37,0 18.36,27.98 0,27.98zm31.9 31.9c-18.34,0 -18.35,-27.99 0,-27.99 18.36,0 18.35,27.99 0,27.99zm-58.14 -133.23c-18.36,0 -18.36,-27.99 0,-27.99 18.36,0 18.36,27.99 0,27.99zm31.9 31.89c-18.35,0 -18.35,-27.98 0,-27.98 18.35,0 18.34,27.98 0,27.98zm31.89 31.9c-18.35,0 -18.35,-27.99 0,-27.99 18.36,0 18.36,27.99 0,27.99z"/>
  <path class="fil1" d="M285.26 85.1l141.64 141.64 41.78 -41.78c62.96,-62.96 18.05,-170.84 -70.82,-170.84 -26.84,0 -51.99,10.37 -70.82,29.2l-41.78 41.78z"/>
  <path class="fil2" d="M417.01 236.64l-141.65 -141.64 -180.36 180.36 141.64 141.64 180.37 -180.36zm-38.07 6.1c-18.35,0 -18.35,-27.99 0,-27.99 18.35,0 18.35,27.99 0,27.99zm-101.34 -54.23c18.35,0 18.35,27.99 0,27.99 -18.35,0 -18.35,-27.99 0,-27.99zm-37.55 37.55c18.35,0 18.35,27.99 0,27.99 -18.34,0 -18.34,-27.99 0,-27.99zm-106.99 43.2c18.36,0 18.36,27.99 0.01,27.99 -18.36,0 -18.36,-27.99 -0.01,-27.99zm69.45 -5.65c18.34,0 18.35,27.98 0,27.98 -18.35,0 -18.35,-27.98 0,-27.98zm-37.55 37.54c18.35,0 18.35,27.99 0,27.99 -18.35,0 -18.35,-27.99 0,-27.99zm69.44 22.34c-18.36,0 -18.36,-27.99 0,-27.99 18.36,0 18.36,27.99 0,27.99zm-37.55 9.56c18.36,0 18.36,27.98 0,27.98 -18.36,0 -18.36,-27.98 0,-27.98zm112.64 -84.66c-18.35,0 -18.35,-27.98 0,-27.98 18.37,0 18.36,27.98 0,27.98zm-37.54 9.56c18.36,0 18.36,27.99 0,27.99 -18.35,0 -18.35,-27.99 0,-27.99zm-43.2 134.98c-18.35,0 -18.35,-27.99 0,-27.99 18.35,0 18.34,27.99 0,27.99zm-58.14 -161.22c18.36,0 18.36,27.99 0,27.99 -18.36,0 -18.36,-27.99 0,-27.99zm95.68 123.67c-18.34,0 -18.35,-27.99 0,-27.99 18.35,0 18.35,27.99 0,27.99zm-58.13 -161.22c18.36,0 18.36,27.99 0,27.99 -18.36,0 -18.36,-27.99 0,-27.99zm95.68 123.67c-18.34,0 -18.35,-27.98 0,-27.98 18.36,0 18.36,27.98 0,27.98zm-58.13 -161.21c18.35,0 18.36,27.98 0,27.98 -18.36,0 -18.36,-27.98 0,-27.98zm95.68 123.67c-18.34,0 -18.35,-27.99 0,-27.99 18.36,0 18.35,27.99 0,27.99zm-58.14 -133.23c-18.36,0 -18.36,-27.99 0,-27.99 18.36,0 18.36,27.99 0,27.99zm31.9 31.89c-18.35,0 -18.35,-27.98 0,-27.98 18.35,0 18.34,27.98 0,27.98zm31.89 31.9c-18.35,0 -18.35,-27.99 0,-27.99 18.36,0 18.36,27.99 0,27.99z"/>
  <path class="fil1" d="M226.74 426.9l-141.64 -141.64 -41.78 41.78c-62.96,62.96 -18.05,170.84 70.82,170.84 26.84,0 51.99,-10.37 70.82,-29.2l41.78 -41.78z"/>
 </g>
</svg>
