<?xml version="1.0" encoding="UTF-8"?>
<!DOCTYPE svg PUBLIC "-//W3C//DTD SVG 1.1//EN" "http://www.w3.org/Graphics/SVG/1.1/DTD/svg11.dtd">
<!-- Creator: CorelDRAW -->
<svg xmlns="http://www.w3.org/2000/svg" xml:space="preserve" width="1.70666in" height="1.70666in" style="shape-rendering:geometricPrecision; text-rendering:geometricPrecision; image-rendering:optimizeQuality; fill-rule:evenodd; clip-rule:evenodd"
viewBox="0 0 1.70666 1.70666"
 xmlns:xlink="http://www.w3.org/1999/xlink">
 <defs>
  <style type="text/css">
   <![CDATA[
    .fil0 {fill:#FF5757}
    .fil1 {fill:#FFCF59}
   ]]>
  </style>
 </defs>
 <g id="Layer_x0020_1">
  <metadata id="CorelCorpID_0Corel-Layer"/>
  <path class="fil0" d="M0.853323 1.37777c-0.0117402,0 -0.0213819,-0.00938189 -0.0216457,-0.0211772 -0.00534646,-0.242122 -0.0667402,-0.40948 -0.182469,-0.497425 -0.129508,-0.0984252 -0.285346,-0.060311 -0.286909,-0.0599173 -0.0115709,0.00294882 -0.023374,-0.00403543 -0.0263386,-0.0156102 -0.0029685,-0.0115748 0.00398425,-0.0233543 0.0155472,-0.0263425 0.00715748,-0.00184646 0.176894,-0.0439331 0.323394,0.0669882 0.127102,0.0962402 0.194417,0.275012 0.200083,0.53135 0.00026378,0.0119567 -0.00922047,0.0218661 -0.0211732,0.0221339 -0.000161417,0 -0.000322835,0 -0.000488189,0z"/>
  <path class="fil0" d="M1.40513 1.23174c-0.0473346,0 -0.0992795,-0.0105394 -0.154398,-0.0313307 -0.0706811,-0.0265827 -0.107028,-0.0840197 -0.0997087,-0.157579 0.00885827,-0.0890315 0.0802638,-0.177484 0.152807,-0.189291 0.0121693,-0.00197244 0.0274685,-0.0402559 0.0236929,-0.0891102 -0.00272835,-0.0353819 -0.0145827,-0.0565866 -0.0244685,-0.0566496 -0.0280787,-0.000181102 -0.121748,-0.0078622 -0.148969,-0.0988307 -0.0227087,-0.0717126 -0.0140906,-0.140063 0.0242638,-0.19248 0.0401299,-0.0548346 0.109697,-0.0875709 0.186094,-0.0875709 0.0599252,0 0.118398,0.0194921 0.169094,0.056374 0.0572559,0.0416575 0.100791,0.10213 0.129394,0.179736 0.0597835,0.162224 0.0666378,0.403413 -0.0359252,0.55052 -0.053,0.0760276 -0.129728,0.116213 -0.221878,0.116213z"/>
  <path class="fil0" d="M0.853343 1.37777c-0.000161417,0 -0.000326772,0 -0.000484252,-3.93701e-006 -0.0119606,-0.000267717 -0.0214409,-0.0101732 -0.0211772,-0.0221339 0.00566535,-0.256343 0.0729843,-0.43511 0.200083,-0.531346 0.146496,-0.110925 0.31624,-0.0688386 0.323394,-0.0669882 0.0115866,0.00298819 0.0185472,0.0147992 0.0155591,0.0263819 -0.00298425,0.0115709 -0.0147835,0.0185354 -0.0263465,0.0155709l0 0c-0.00156299,-0.000397638 -0.157394,-0.0385079 -0.286906,0.0599134 -0.115732,0.0879488 -0.177122,0.255307 -0.182472,0.497425 -0.000267717,0.0117953 -0.00991339,0.0211811 -0.0216496,0.0211811z"/>
  <path class="fil1" d="M0.301575 1.23174c-1.9685e-005,0 -2.75591e-005,0 -4.33071e-005,0 -0.0921575,-1.5748e-005 -0.168886,-0.0402126 -0.221894,-0.116252 -0.102547,-0.147098 -0.0956929,-0.388268 -0.0359173,-0.55048 0.0286063,-0.0776063 0.0721378,-0.138075 0.129394,-0.179732 0.0506929,-0.0368819 0.109165,-0.056378 0.169094,-0.056378 0.0763976,0 0.145961,0.0327362 0.186091,0.0875709 0.0383583,0.0524173 0.0469764,0.120768 0.0242638,0.192484 -0.0272205,0.0909646 -0.120886,0.0986457 -0.148965,0.0988268 -0.00988583,6.29921e-005 -0.0217402,0.0212717 -0.0244724,0.0566496 -0.00377165,0.0488543 0.0115236,0.0871339 0.0236772,0.0891024 0.0725591,0.011811 0.143969,0.10026 0.152827,0.189291 0.00732283,0.073563 -0.0290276,0.130996 -0.0997283,0.157591 -0.0550866,0.0207835 -0.107028,0.0313268 -0.154327,0.0313268z"/>
 </g>
</svg>
