<?xml version="1.0" encoding="UTF-8"?>
<!DOCTYPE svg PUBLIC "-//W3C//DTD SVG 1.1//EN" "http://www.w3.org/Graphics/SVG/1.1/DTD/svg11.dtd">
<!-- Creator: CorelDRAW -->
<svg xmlns="http://www.w3.org/2000/svg" xml:space="preserve" width="2.83333in" height="2.83333in" version="1.1" style="shape-rendering:geometricPrecision; text-rendering:geometricPrecision; image-rendering:optimizeQuality; fill-rule:evenodd; clip-rule:evenodd"
viewBox="0 0 2833 2833"
 xmlns:xlink="http://www.w3.org/1999/xlink">
 <defs>
  <style type="text/css">
   <![CDATA[
    .fil1 {fill:#333333}
    .fil4 {fill:#99A4AC}
    .fil3 {fill:#D9F2F2}
    .fil2 {fill:#F1F1F1}
    .fil0 {fill:#F8C2D7}
   ]]>
  </style>
 </defs>
 <g id="Layer_x0020_1">
  <metadata id="CorelCorpID_0Corel-Layer"/>
  <circle class="fil0" cx="1417" cy="1417" r="1417"/>
  <path class="fil1" d="M827 2270c-93,0 -169,-93 -169,-206 0,-192 200,-279 300,-130l202 -1350c4,-27 43,-27 47,0l204 1348c101,-147 299,-59 299,132 0,113 -76,206 -170,206 -114,0 -191,-134 -163,-261l-129 0c-31,0 -31,-47 0,-47l121 0 -121 -798 -127 0 -120 798 99 0c31,0 31,47 0,47l-110 0c29,127 -48,261 -163,261zm1215 -1c-73,0 -132,-59 -132,-132l0 -990c0,-29 35,-24 58,-24 9,-14 34,-59 34,-66 -7,-27 -16,-54 -24,-81 -31,-97 -62,-198 -18,-293 31,-69 82,-83 153,-117 16,-7 34,4 34,21l0 536c16,0 28,7 28,24l0 990c0,73 -59,132 -133,132zm-20 -1146l78 0 0 -499c-47,23 -76,31 -98,79 -47,103 16,229 46,345 4,18 -6,40 -26,75zm-66 47l0 967c0,47 39,86 86,86 48,0 87,-39 87,-86l0 -967 -173 0zm66 985c-13,0 -23,-10 -23,-23l0 -370c0,-30 47,-30 47,0l0 370c0,13 -11,23 -24,23zm0 -465c-13,0 -23,-10 -23,-23l0 -153c0,-31 47,-31 47,0l0 153c0,13 -11,23 -24,23zm-781 -573l-57 -376 -56 376 113 0zm299 788c-67,0 -122,71 -122,159 0,88 55,159 122,159 68,0 123,-71 123,-159 0,-88 -55,-159 -123,-159zm-713 0c-67,0 -122,71 -122,159 0,88 55,159 122,159 68,0 123,-71 123,-159 0,-88 -55,-159 -123,-159z"/>
  <path class="fil2" d="M1540 1905c-67,0 -122,71 -122,159 0,88 55,159 122,159 68,0 123,-71 123,-159 0,-88 -55,-159 -123,-159z"/>
  <path class="fil2" d="M950 2064c0,-88 -55,-159 -123,-159 -67,0 -122,71 -122,159 0,88 55,159 122,159 68,0 123,-71 123,-159z"/>
  <polygon class="fil2" points="1128,1117 1241,1117 1184,741 "/>
  <path class="fil3" d="M2002 703c-47,103 16,229 46,345 4,18 -6,40 -26,75l78 0 0 -499c-47,23 -76,31 -98,79z"/>
  <path class="fil4" d="M2129 1170l-173 0 0 967c0,47 39,86 86,86 48,0 87,-39 87,-86l0 -967zm-83 344l0 153c0,13 -11,23 -24,23 -13,0 -23,-10 -23,-23l0 -153c0,-31 47,-31 47,0zm-47 248c0,-30 47,-30 47,0l0 370c0,13 -11,23 -24,23 -13,0 -23,-10 -23,-23l0 -370z"/>
 </g>
</svg>
